<svg width="20" height="20" viewBox="0 0 20 20" fill="none" xmlns="http://www.w3.org/2000/svg">
<path d="M11 1C11 0.447715 10.5523 0 10 0C9.44771 0 9 0.447715 9 1V2C9 2.55228 9.44771 3 10 3C10.5523 3 11 2.55228 11 2V1Z" fill="#A44AFF"/>
<path d="M11 14C11 13.4477 10.5523 13 10 13C9.44771 13 9 13.4477 9 14V16.5858L8.70711 16.2929C8.31658 15.9024 7.68342 15.9024 7.29289 16.2929C6.90237 16.6834 6.90237 17.3166 7.29289 17.7071L9.29289 19.7071C9.68342 20.0976 10.3166 20.0976 10.7071 19.7071L12.7071 17.7071C13.0976 17.3166 13.0976 16.6834 12.7071 16.2929C12.3166 15.9024 11.6834 15.9024 11.2929 16.2929L11 16.5858V14Z" fill="#A44AFF"/>
<path d="M19 11C19.5523 11 20 10.5523 20 10C20 9.44771 19.5523 9 19 9H18C17.4477 9 17 9.44771 17 10C17 10.5523 17.4477 11 18 11H19Z" fill="#A44AFF"/>
<path d="M3 10C3 10.5523 2.55228 11 2 11H1C0.447715 11 0 10.5523 0 10C0 9.44771 0.447715 9 1 9H2C2.55228 9 3 9.44771 3 10Z" fill="#A44AFF"/>
<path d="M17.0711 15.6569L16.364 14.9497C15.9734 14.5592 15.3403 14.5592 14.9497 14.9497C14.5592 15.3403 14.5592 15.9734 14.9497 16.364L15.6569 17.0711C16.0474 17.4616 16.6805 17.4616 17.0711 17.0711C17.4616 16.6805 17.4616 16.0474 17.0711 15.6569Z" fill="#A44AFF"/>
<path d="M5.05025 5.05025C4.65973 5.44078 4.02656 5.44078 3.63604 5.05025L2.92893 4.34315C2.53841 3.95262 2.53841 3.31946 2.92893 2.92893C3.31946 2.53841 3.95262 2.53841 4.34314 2.92893L5.05025 3.63604C5.44078 4.02656 5.44078 4.65973 5.05025 5.05025Z" fill="#A44AFF"/>
<path d="M2.92893 15.6569C2.53841 16.0474 2.53841 16.6805 2.92893 17.0711C3.31946 17.4616 3.95262 17.4616 4.34315 17.0711L5.05025 16.364C5.44078 15.9734 5.44078 15.3403 5.05025 14.9497C4.65973 14.5592 4.02656 14.5592 3.63604 14.9497L2.92893 15.6569Z" fill="#A44AFF"/>
<path d="M14.9497 5.05025C14.5592 4.65973 14.5592 4.02656 14.9497 3.63604L15.6569 2.92893C16.0474 2.53841 16.6805 2.53841 17.0711 2.92893C17.4616 3.31946 17.4616 3.95262 17.0711 4.34315L16.364 5.05025C15.9734 5.44078 15.3403 5.44078 14.9497 5.05025Z" fill="#A44AFF"/>
<path d="M6.88853 11.6054C6.20788 10.2872 6.42185 8.6284 7.52512 7.52513C8.89196 6.15829 11.108 6.15829 12.4749 7.52513C13.5781 8.6284 13.7921 10.2872 13.1115 11.6054C12.8581 12.0961 13.0505 12.6993 13.5412 12.9527C14.0319 13.2061 14.6351 13.0137 14.8885 12.523C15.9569 10.4539 15.6256 7.84739 13.8891 6.11091C11.7412 3.96303 8.25879 3.96303 6.11091 6.11091C4.37443 7.84739 4.04305 10.4539 5.11145 12.523C5.36484 13.0137 5.96806 13.2061 6.45879 12.9527C6.94952 12.6993 7.14191 12.0961 6.88853 11.6054Z" fill="#A44AFF"/>
</svg>
