<svg width="20" height="20" viewBox="0 0 20 20" fill="none" xmlns="http://www.w3.org/2000/svg">
<path d="M10 0C10.5523 0 11 0.447715 11 1V2C11 2.55228 10.5523 3 10 3C9.44771 3 9 2.55228 9 2V1C9 0.447715 9.44771 0 10 0Z" fill="#A44AFF"/>
<path d="M10 17C10.5523 17 11 17.4477 11 18V19C11 19.5523 10.5523 20 10 20C9.44771 20 9 19.5523 9 19V18C9 17.4477 9.44771 17 10 17Z" fill="#A44AFF"/>
<path d="M19 11C19.5523 11 20 10.5523 20 10C20 9.44771 19.5523 9 19 9H18C17.4477 9 17 9.44771 17 10C17 10.5523 17.4477 11 18 11H19Z" fill="#A44AFF"/>
<path d="M3 10C3 10.5523 2.55228 11 2 11H1C0.447715 11 0 10.5523 0 10C0 9.44771 0.447715 9 1 9H2C2.55228 9 3 9.44771 3 10Z" fill="#A44AFF"/>
<path d="M14.9497 16.364L15.6569 17.0711C16.0474 17.4616 16.6805 17.4616 17.0711 17.0711C17.4616 16.6805 17.4616 16.0474 17.0711 15.6569L16.364 14.9497C15.9734 14.5592 15.3403 14.5592 14.9497 14.9497C14.5592 15.3403 14.5592 15.9734 14.9497 16.364Z" fill="#A44AFF"/>
<path d="M5.05025 5.05025C4.65973 5.44078 4.02656 5.44078 3.63604 5.05025L2.92893 4.34315C2.53841 3.95262 2.53841 3.31946 2.92893 2.92893C3.31946 2.53841 3.95262 2.53841 4.34315 2.92893L5.05025 3.63604C5.44078 4.02656 5.44078 4.65973 5.05025 5.05025Z" fill="#A44AFF"/>
<path d="M2.92893 15.6569C2.53841 16.0474 2.53841 16.6805 2.92893 17.0711C3.31946 17.4616 3.95262 17.4616 4.34315 17.0711L5.05025 16.364C5.44078 15.9734 5.44078 15.3403 5.05025 14.9497C4.65973 14.5592 4.02656 14.5592 3.63604 14.9497L2.92893 15.6569Z" fill="#A44AFF"/>
<path d="M14.9497 5.05025C14.5592 4.65973 14.5592 4.02656 14.9497 3.63604L15.6569 2.92893C16.0474 2.53841 16.6805 2.53841 17.0711 2.92893C17.4616 3.31946 17.4616 3.95262 17.0711 4.34315L16.364 5.05025C15.9734 5.44078 15.3403 5.44078 14.9497 5.05025Z" fill="#A44AFF"/>
<path fill-rule="evenodd" clip-rule="evenodd" d="M10 4.5C6.96243 4.5 4.5 6.96243 4.5 10C4.5 13.0376 6.96243 15.5 10 15.5C13.0376 15.5 15.5 13.0376 15.5 10C15.5 6.96243 13.0376 4.5 10 4.5ZM6.5 10C6.5 8.067 8.067 6.5 10 6.5C11.933 6.5 13.5 8.067 13.5 10C13.5 11.933 11.933 13.5 10 13.5C8.067 13.5 6.5 11.933 6.5 10Z" fill="#A44AFF"/>
</svg>
