<svg width="20" height="17" viewBox="0 0 20 17" fill="none" xmlns="http://www.w3.org/2000/svg">
<path d="M10 0C10.5523 0 11 0.447715 11 1V2C11 2.55228 10.5523 3 10 3C9.44771 3 9 2.55228 9 2V1C9 0.447715 9.44771 0 10 0Z" fill="#A44AFF"/>
<path d="M20 10C20 10.5523 19.5523 11 19 11H18C17.4477 11 17 10.5523 17 10C17 9.44771 17.4477 9 18 9H19C19.5523 9 20 9.44771 20 10Z" fill="#A44AFF"/>
<path d="M2 11C2.55228 11 3 10.5523 3 10C3 9.44771 2.55228 9 2 9H1C0.447715 9 0 9.44771 0 10C0 10.5523 0.447715 11 1 11H2Z" fill="#A44AFF"/>
<path d="M5.05025 5.05025C4.65973 5.44078 4.02656 5.44078 3.63604 5.05025L2.92893 4.34315C2.53841 3.95262 2.53841 3.31946 2.92893 2.92893C3.31946 2.53841 3.95262 2.53841 4.34315 2.92893L5.05025 3.63604C5.44078 4.02656 5.44078 4.65973 5.05025 5.05025Z" fill="#A44AFF"/>
<path d="M15.6569 2.92893L14.9497 3.63604C14.5592 4.02656 14.5592 4.65973 14.9497 5.05025C15.3403 5.44078 15.9734 5.44078 16.364 5.05025L17.0711 4.34315C17.4616 3.95262 17.4616 3.31946 17.0711 2.92893C16.6805 2.53841 16.0474 2.53841 15.6569 2.92893Z" fill="#A44AFF"/>
<path d="M18 16C18 16.5523 17.5523 17 17 17H3C2.44771 17 2 16.5523 2 16C2 15.4477 2.44771 15 3 15H17C17.5523 15 18 15.4477 18 16Z" fill="#A44AFF"/>
<path d="M6.88853 11.6054C6.20788 10.2872 6.42186 8.6284 7.52513 7.52513C8.89196 6.15829 11.108 6.15829 12.4749 7.52513C13.5781 8.6284 13.7921 10.2872 13.1115 11.6054C12.8581 12.0961 13.0505 12.6993 13.5412 12.9527C14.0319 13.2061 14.6352 13.0137 14.8885 12.523C15.9569 10.4539 15.6256 7.84739 13.8891 6.11091C11.7412 3.96303 8.2588 3.96303 6.11091 6.11091C4.37444 7.84739 4.04306 10.4539 5.11145 12.523C5.36484 13.0137 5.96807 13.2061 6.4588 12.9527C6.94952 12.6993 7.14192 12.0961 6.88853 11.6054Z" fill="#A44AFF"/>
</svg>
