<svg width="16" height="16" viewBox="0 0 16 16" fill="none" xmlns="http://www.w3.org/2000/svg">
<path fill-rule="evenodd" clip-rule="evenodd" d="M7.5503 0.529012C7.77576 0.842135 7.80095 1.25703 7.61505 1.59513C7.22325 2.3077 7 3.12628 7 4C7 6.76143 9.23858 9 12 9C12.8737 9 13.6923 8.77675 14.4049 8.38495C14.743 8.19905 15.1579 8.22425 15.471 8.4497C15.7841 8.67515 15.9396 9.06063 15.8705 9.44024C15.1917 13.1712 11.9272 16 8 16C3.58172 16 0 12.4183 0 8C0 4.07277 2.82882 0.808327 6.55976 0.129475C6.93937 0.0604044 7.32485 0.215888 7.5503 0.529012ZM5.11357 2.73834C3.25774 3.75874 2 5.73311 2 8C2 11.3137 4.68629 14 8 14C10.2669 14 12.2413 12.7423 13.2617 10.8864C12.8521 10.961 12.4304 11 12 11C8.13401 11 5 7.866 5 4C5 3.56957 5.03896 3.14786 5.11357 2.73834Z" fill="#A44AFF"/>
</svg>
