<svg width="16" height="16" viewBox="0 0 16 16" fill="none" xmlns="http://www.w3.org/2000/svg">
<path d="M7.76888 1.48181C7.95479 1.14371 7.92959 0.728815 7.70414 0.415692C7.47868 0.102569 7.0932 -0.052915 6.71359 0.0161558C3.39947 0.619166 0.886688 3.51871 0.886688 7.00724C0.886688 8.78304 1.53936 10.4089 2.61659 11.6542C2.9779 12.0719 3.60942 12.1176 4.02711 11.7563C4.44481 11.395 4.49051 10.7635 4.1292 10.3458C3.35438 9.45007 2.88669 8.28453 2.88669 7.00724C2.88669 5.17336 3.854 3.5643 5.30633 2.66389C5.26798 2.9433 5.24818 3.22847 5.24818 3.51805C5.24818 6.96087 8.03914 9.75183 11.482 9.75183C11.7715 9.75183 12.0566 9.73203 12.336 9.6937C12.1933 9.92375 12.0328 10.1418 11.8563 10.3458C11.495 10.7635 11.5407 11.395 11.9584 11.7563C12.3761 12.1176 13.0076 12.0719 13.369 11.6542C14.1808 10.7158 14.752 9.56078 14.9839 8.28642C15.0529 7.90681 14.8974 7.52132 14.5843 7.29587C14.2712 7.07042 13.8563 7.04522 13.5182 7.23113C12.915 7.56279 12.2221 7.75183 11.482 7.75183C9.14371 7.75183 7.24818 5.8563 7.24818 3.51805C7.24818 2.77795 7.43722 2.08501 7.76888 1.48181Z" fill="#A44AFF"/>
<path d="M15 16C15.5523 16 16 15.5523 16 15C16 14.4477 15.5523 14 15 14H1C0.447715 14 0 14.4477 0 15C0 15.5523 0.447715 16 1 16L15 16Z" fill="#A44AFF"/>
</svg>
